# xmcd
# 
# Track frame offsets:
#     183
#     21245
#     49570
#     67895
#     107020
#     121595
#     141020
#     182720
# 
# Disc length: 3052
# 
# Revision: 5
# Processed by: cddbd v1.5.2PL0 Copyright (c) Steve Scherf et al.
# Submitted via: fre:ac v1.0.17
# 
DISCID=600bea08
DTITLE=Van Morrison - It's Too Late To Stop Now Disc 2
DYEAR=1974
DGENRE=Rock
TTITLE0=Bring It On Home To Me
TTITLE1=Saint Dominic's Preview
TTITLE2=Take Your Hands Out Of My Pocket
TTITLE3=Listen To The Lion
TTITLE4=Here Comes The Night
TTITLE5=Gloria
TTITLE6=Caravan
TTITLE7=Cypress Avenue
EXTD=
EXTT0=
EXTT1=
EXTT2=
EXTT3=
EXTT4=
EXTT5=
EXTT6=
EXTT7=
PLAYORDER=
